<svg xmlns="http://www.w3.org/2000/svg" width="257" height="80" fill="none"><path fill="#000" d="M48.587 61.393a16.767 16.767 0 0 1-4.81 13.24A16.767 16.767 0 0 1 30.58 79.56a16.767 16.767 0 0 1 4.81-13.24 16.767 16.767 0 0 1 13.197-4.927Zm-8.578-6.576C35.283 59.871 28.455 62.901 21 62.561c-7.453-.34-13.976-3.98-18.222-9.443 4.727-5.054 11.554-8.084 19.009-7.743 7.453.34 13.976 3.979 18.222 9.442ZM0 38.551c.987-11.835 6.958-23.18 17.359-30.653 10.4-7.472 23.057-9.512 34.588-6.672-.987 11.835-6.958 23.18-17.36 30.653-10.4 7.473-23.056 9.512-34.587 6.672Zm191.719-14.513v7.207h4.324v37.677h7.687V31.245h10.09v-7.207h-10.09v-7.375c0-2.114.192-3.811.577-5.093.384-1.28.897-2.178 1.537-2.69.705-.577 1.538-.865 2.499-.865.768 0 1.569.16 2.402.48.897.257 1.665.93 2.306 2.018l4.228-6.342c-.448-.64-1.089-1.249-1.922-1.825-.768-.577-1.697-1.058-2.786-1.442-1.089-.384-2.339-.576-3.748-.576-2.691 0-4.997.576-6.919 1.73-1.857 1.088-3.299 2.754-4.324 4.996-1.025 2.242-1.537 5.125-1.537 8.648v8.336h-4.324ZM71 9.345v59.577h34.593v-7.688H79.168V9.345H71Z"/><path fill="#000" fill-rule="evenodd" d="M126.079 69.883c4.741 0 8.841-.93 12.3-2.787 3.523-1.922 6.438-4.74 8.744-8.456l-6.246-3.94c-1.601 2.69-3.555 4.709-5.861 6.054-2.306 1.281-4.965 1.922-7.976 1.922s-5.573-.64-7.687-1.922c-2.114-1.281-3.716-3.14-4.805-5.573-.827-1.85-1.341-3.996-1.539-6.438h34.787v-.865c.064-.513.096-.993.096-1.442 0-4.676-.833-8.712-2.498-12.107-1.666-3.396-4.068-5.99-7.207-7.784-3.075-1.857-6.791-2.786-11.147-2.786s-8.2.96-11.531 2.882c-3.267 1.922-5.829 4.613-7.687 8.072-1.794 3.46-2.691 7.495-2.691 12.108 0 4.548.865 8.552 2.595 12.011 1.793 3.46 4.26 6.182 7.399 8.168 3.203 1.922 6.854 2.883 10.954 2.883Zm-11.435-32.095c-.614 1.3-1.065 2.774-1.353 4.42h26.198c-.148-2.105-.678-3.962-1.591-5.573-1.025-1.922-2.466-3.427-4.324-4.516-1.857-1.09-4.036-1.634-6.534-1.634-2.947 0-5.477.64-7.591 1.922-2.05 1.217-3.652 3.01-4.805 5.381Zm64.54 6.899c-1.208-.792-2.746-1.49-4.612-2.094-2.114-.77-4.773-1.154-7.976-1.154-5.445 0-9.705 1.314-12.78 3.94-3.011 2.563-4.516 5.99-4.516 10.282 0 3.01.704 5.573 2.113 7.687 1.41 2.115 3.268 3.748 5.574 4.901 2.37 1.09 4.901 1.634 7.591 1.634 2.434 0 4.869-.449 7.303-1.345 2.499-.897 4.581-2.275 6.246-4.132.398-.428.75-.881 1.057-1.36v5.876h7.687v-31.71c0-2.883-.736-5.317-2.21-7.303-1.409-1.986-3.427-3.492-6.053-4.517-2.563-1.089-5.574-1.633-9.033-1.633-4.1 0-7.623.608-10.57 1.825-2.883 1.218-5.157 2.435-6.823 3.652l3.748 5.67c.704-.513 1.666-1.122 2.883-1.826 1.217-.705 2.69-1.314 4.42-1.826 1.794-.513 3.779-.769 5.958-.769 1.345 0 2.626.128 3.843.384 1.217.257 2.274.673 3.171 1.25a5.72 5.72 0 0 1 2.21 2.402c.513.96.769 2.21.769 3.748v6.418Zm-20.948 6.458c-.769 1.153-1.153 2.53-1.153 4.132 0 1.665.384 3.107 1.153 4.324.833 1.217 1.954 2.146 3.363 2.787 1.474.576 3.139.864 4.997.864 2.37 0 4.484-.48 6.342-1.441 1.922-.96 3.427-2.306 4.516-4.036 1.154-1.794 1.73-3.844 1.73-6.15v-1.662a21.192 21.192 0 0 0-3.748-1.413c-2.37-.704-4.9-1.057-7.591-1.057-2.498 0-4.548.32-6.15.961-1.537.64-2.69 1.538-3.459 2.69Zm88.94 15.951c-3.459 1.858-7.559 2.787-12.299 2.787-4.1 0-7.752-.961-10.955-2.883-3.139-1.986-5.605-4.709-7.399-8.168-1.73-3.46-2.594-7.463-2.594-12.011 0-4.613.897-8.648 2.69-12.108 1.858-3.46 4.42-6.15 7.687-8.072 3.332-1.921 7.175-2.882 11.532-2.882 4.356 0 8.071.929 11.146 2.786 3.139 1.794 5.541 4.388 7.207 7.784 1.666 3.395 2.498 7.43 2.498 12.107 0 .449-.032.93-.096 1.442v.865h-34.787c.199 2.442.712 4.588 1.54 6.438 1.089 2.434 2.69 4.292 4.804 5.573 2.114 1.281 4.677 1.922 7.688 1.922 3.01 0 5.669-.64 7.975-1.922 2.306-1.345 4.26-3.363 5.862-6.054l6.246 3.94c-2.307 3.715-5.221 6.534-8.745 8.456Zm-25.087-24.888c.288-1.646.739-3.12 1.353-4.42 1.153-2.37 2.754-4.164 4.804-5.381 2.114-1.281 4.645-1.922 7.592-1.922 2.498 0 4.676.545 6.534 1.634 1.857 1.089 3.299 2.594 4.324 4.516.912 1.61 1.443 3.468 1.591 5.573h-26.198Z" clip-rule="evenodd"/></svg>