<svg xmlns="http://www.w3.org/2000/svg" width="289" height="83" fill="none"><path fill="#fff" d="M136.546 49.747V79h9.504V47.846c0-3.943-.845-7.428-2.534-10.455-1.69-3.028-4.013-5.386-6.97-7.076-2.887-1.69-6.231-2.535-10.033-2.535-3.802 0-7.217.88-10.244 2.64-2.28 1.273-4.181 2.906-5.703 4.898V3.596h-9.504V79h9.504V49.747c0-2.535.563-4.788 1.69-6.76a12.265 12.265 0 0 1 4.647-4.646c1.971-1.126 4.224-1.69 6.759-1.69 3.801 0 6.899 1.232 9.293 3.697 2.394 2.464 3.591 5.597 3.591 9.399Zm26.175 27.563c3.309 1.83 7.04 2.746 11.194 2.746 4.224 0 7.921-.915 11.089-2.746 3.238-1.9 5.773-4.506 7.604-7.815 1.83-3.309 2.745-7.146 2.745-11.51v-29.15h-9.504v28.726c0 4.154-1.056 7.427-3.169 9.821-2.112 2.324-5.033 3.485-8.765 3.485-2.464 0-4.611-.528-6.442-1.584-1.831-1.056-3.239-2.57-4.224-4.541-.916-2.042-1.373-4.436-1.373-7.181V28.836h-9.505v29.148c0 4.365.915 8.202 2.746 11.511 1.83 3.31 4.365 5.914 7.604 7.815Z"/><path fill="#fff" fill-rule="evenodd" d="M226.046 80.056c-4.999 0-9.505-1.126-13.518-3.38-4.013-2.323-7.182-5.456-9.505-9.398-2.323-3.943-3.485-8.414-3.485-13.413 0-4.928 1.127-9.364 3.38-13.306 2.323-3.943 5.421-7.04 9.293-9.294 3.943-2.323 8.343-3.485 13.201-3.485 4.647 0 8.73 1.056 12.25 3.168 3.591 2.113 6.372 5.035 8.343 8.766 2.042 3.731 3.063 7.956 3.063 12.673 0 .704-.035 1.478-.106 2.323-.07.775-.211 1.69-.422 2.746h-39.285c.335 1.953.933 3.749 1.794 5.386 1.408 2.605 3.415 4.647 6.02 6.125 2.605 1.408 5.597 2.112 8.977 2.112 2.816 0 5.386-.492 7.709-1.478a15.966 15.966 0 0 0 6.125-4.436l6.125 6.231c-2.393 2.816-5.35 4.964-8.871 6.442-3.449 1.479-7.146 2.218-11.088 2.218Zm-15.102-35.484c-.789 1.495-1.346 3.15-1.669 4.963h30.529c-.259-2.076-.797-3.906-1.614-5.491-1.196-2.394-2.886-4.224-5.069-5.492-2.182-1.337-4.822-2.006-7.92-2.006-3.239 0-6.09.704-8.555 2.112-2.464 1.408-4.365 3.38-5.702 5.914Z" clip-rule="evenodd"/><path fill="#fff" d="M255.207 75.832A29.043 29.043 0 0 0 262.072 79c2.534.704 5.21 1.056 8.026 1.056 5.632 0 10.103-1.373 13.412-4.119 3.38-2.745 5.069-6.477 5.069-11.194 0-3.098-.669-5.597-2.006-7.498-1.268-1.901-2.922-3.415-4.964-4.541a30.243 30.243 0 0 0-6.442-2.64 594.443 594.443 0 0 0-6.548-2.007c-2.041-.634-3.696-1.408-4.963-2.323-1.267-.916-1.901-2.218-1.901-3.908s.704-2.992 2.112-3.907c1.479-.986 3.591-1.479 6.337-1.479 2.605 0 4.928.493 6.97 1.479a14.068 14.068 0 0 1 5.28 4.224l6.125-6.125c-1.971-2.746-4.506-4.788-7.603-6.126-3.028-1.408-6.513-2.112-10.456-2.112-3.731 0-6.935.599-9.61 1.796-2.605 1.197-4.647 2.922-6.125 5.174-1.479 2.183-2.218 4.788-2.218 7.815 0 3.028.634 5.457 1.901 7.287a14.358 14.358 0 0 0 5.069 4.33 39.896 39.896 0 0 0 6.442 2.64c2.324.634 4.506 1.303 6.548 2.007 2.042.634 3.696 1.478 4.963 2.535 1.338.985 2.007 2.393 2.007 4.224 0 1.83-.81 3.274-2.429 4.33-1.619.985-3.907 1.478-6.864 1.478s-5.633-.528-8.027-1.584c-2.393-1.126-4.506-2.816-6.336-5.069l-6.125 6.125a24.713 24.713 0 0 0 5.491 4.964Zm24.475-63.839v1.872h-2.253v5.694h-2.139v-5.694h-2.253v-1.872h6.645Zm8.781-.113v7.713h-2.138V15.85l-1.567 1.758h-.641l-1.567-1.758v3.743h-2.138V11.88h.755l3.271 3.29 3.271-3.29h.754ZM9.913 24.303c2.96 9.49 13.053 14.785 22.543 11.825 9.49-2.96 31.968-18.412 29.008-27.902-2.96-9.49-30.236-9.425-39.727-6.466-9.49 2.96-14.784 13.053-11.824 22.543ZM4.178 76.342c5.57 5.57 14.6 5.57 20.17 0 5.57-5.57 15.656-24.686 10.087-30.257-5.57-5.57-24.687 4.516-30.257 10.086s-5.57 14.601 0 20.171Zm53.3 5.477c9.603 2.573 19.473-3.126 22.046-12.728 2.573-9.603 1.533-36.86-8.07-39.432-9.602-2.573-24.13 20.512-26.703 30.114-2.573 9.602 3.125 19.473 12.727 22.046Z"/></svg>