<svg xmlns="http://www.w3.org/2000/svg" width="459" height="91" fill="none"><path fill="#000" d="M56 10H24V0h32c11.046 0 20 8.954 20 20v32H66V20c0-5.523-4.477-10-10-10ZM20 66h32v10H20C8.954 76 0 67.046 0 56V24h10v32c0 5.523 4.477 10 10 10Z"/><path fill="#000" fill-rule="evenodd" d="M58 38c0 11.046-8.954 20-20 20s-20-8.954-20-20 8.954-20 20-20 20 8.954 20 20Zm-10 0c0 5.523-4.477 10-10 10s-10-4.477-10-10 4.477-10 10-10 10 4.477 10 10Z" clip-rule="evenodd"/><path fill="#000" d="M118.675 69.631c-3.788 0-7.197-.65-10.227-1.948-3.03-1.353-5.411-3.246-7.143-5.681-1.731-2.435-2.597-5.276-2.597-8.523h9.902c.217 2.435 1.164 4.437 2.841 6.007 1.732 1.569 4.14 2.353 7.224 2.353 3.192 0 5.682-.757 7.467-2.272 1.786-1.57 2.679-3.572 2.679-6.007 0-1.894-.568-3.436-1.705-4.626-1.082-1.19-2.462-2.11-4.139-2.76-1.624-.65-3.896-1.353-6.818-2.11-3.68-.974-6.683-1.948-9.01-2.922-2.272-1.028-4.22-2.598-5.844-4.708-1.623-2.11-2.435-4.924-2.435-8.441 0-3.247.812-6.088 2.435-8.522 1.624-2.436 3.896-4.302 6.818-5.601 2.922-1.299 6.304-1.948 10.146-1.948 5.465 0 9.929 1.38 13.393 4.14 3.517 2.705 5.465 6.439 5.844 11.2h-10.227c-.163-2.056-1.137-3.814-2.922-5.275-1.786-1.461-4.14-2.192-7.062-2.192-2.651 0-4.816.676-6.493 2.03-1.678 1.352-2.516 3.3-2.516 5.843 0 1.732.514 3.166 1.542 4.302 1.082 1.082 2.435 1.948 4.058 2.597 1.623.65 3.842 1.353 6.656 2.11 3.733 1.029 6.764 2.057 9.09 3.085 2.381 1.028 4.383 2.624 6.007 4.789 1.677 2.11 2.516 4.951 2.516 8.522 0 2.868-.785 5.574-2.354 8.117-1.515 2.543-3.761 4.6-6.737 6.169-2.922 1.515-6.385 2.272-10.389 2.272Zm48.904-46.021c3.517 0 6.656.73 9.415 2.191 2.814 1.461 5.005 3.626 6.575 6.494 1.569 2.868 2.354 6.33 2.354 10.389v26.38h-9.172v-25c0-4.004-1.001-7.062-3.003-9.172-2.003-2.164-4.735-3.247-8.198-3.247s-6.223 1.083-8.279 3.247c-2.002 2.11-3.003 5.168-3.003 9.172v25h-9.253V24.34h9.253v5.114c1.515-1.84 3.436-3.274 5.762-4.302a18.84 18.84 0 0 1 7.549-1.542Zm23.004 22.889c0-4.491.919-8.468 2.759-11.932 1.894-3.463 4.437-6.141 7.63-8.035 3.247-1.948 6.818-2.922 10.714-2.922 3.517 0 6.574.703 9.172 2.11 2.651 1.353 4.761 3.058 6.331 5.114V24.34h9.334v44.723h-9.334v-6.656c-1.57 2.11-3.707 3.87-6.413 5.276-2.705 1.407-5.789 2.11-9.252 2.11-3.842 0-7.36-.973-10.552-2.921-3.193-2.002-5.736-4.762-7.63-8.28-1.84-3.57-2.759-7.602-2.759-12.093Zm36.606.162c0-3.084-.65-5.763-1.948-8.035-1.245-2.273-2.895-4.005-4.952-5.195a13.056 13.056 0 0 0-6.655-1.786c-2.381 0-4.6.596-6.656 1.786-2.056 1.136-3.733 2.84-5.032 5.114-1.245 2.218-1.867 4.87-1.867 7.954 0 3.084.622 5.79 1.867 8.116 1.299 2.327 2.976 4.113 5.032 5.357 2.111 1.19 4.329 1.786 6.656 1.786 2.381 0 4.599-.595 6.655-1.786 2.057-1.19 3.707-2.922 4.952-5.194 1.298-2.327 1.948-5.032 1.948-8.117Zm26.682-15.746c1.569-2.056 3.706-3.788 6.412-5.195 2.705-1.407 5.763-2.11 9.172-2.11 3.896 0 7.44.974 10.633 2.922 3.246 1.894 5.789 4.572 7.629 8.035 1.84 3.464 2.76 7.44 2.76 11.932 0 4.491-.92 8.522-2.76 12.094-1.84 3.517-4.383 6.276-7.629 8.279-3.193 1.948-6.737 2.922-10.633 2.922-3.409 0-6.439-.677-9.091-2.03-2.651-1.406-4.816-3.138-6.493-5.194v27.759h-9.253V24.34h9.253v6.575Zm27.191 15.584c0-3.085-.65-5.736-1.948-7.955-1.245-2.272-2.922-3.977-5.033-5.113a13.058 13.058 0 0 0-6.655-1.786c-2.327 0-4.546.596-6.656 1.786-2.056 1.19-3.734 2.922-5.032 5.195-1.245 2.272-1.867 4.95-1.867 8.035 0 3.084.622 5.79 1.867 8.117 1.298 2.273 2.976 4.004 5.032 5.194 2.11 1.19 4.329 1.786 6.656 1.786 2.38 0 4.599-.595 6.655-1.786 2.111-1.244 3.788-3.03 5.033-5.357 1.298-2.326 1.948-5.032 1.948-8.116Zm33.094 23.132c-3.788 0-7.197-.65-10.227-1.948-3.03-1.353-5.411-3.246-7.143-5.681-1.731-2.435-2.597-5.276-2.597-8.523h9.902c.217 2.435 1.164 4.437 2.841 6.007 1.732 1.569 4.139 2.353 7.224 2.353 3.192 0 5.681-.757 7.467-2.272 1.786-1.57 2.679-3.572 2.679-6.007 0-1.894-.569-3.436-1.705-4.626-1.082-1.19-2.462-2.11-4.139-2.76-1.624-.65-3.896-1.353-6.818-2.11-3.68-.974-6.683-1.948-9.01-2.922-2.272-1.028-4.22-2.598-5.844-4.708-1.623-2.11-2.435-4.924-2.435-8.441 0-3.247.812-6.088 2.435-8.522 1.624-2.436 3.896-4.302 6.818-5.601 2.922-1.299 6.304-1.948 10.146-1.948 5.465 0 9.929 1.38 13.392 4.14 3.518 2.705 5.466 6.439 5.844 11.2h-10.227c-.162-2.056-1.136-3.814-2.922-5.275-1.785-1.461-4.139-2.192-7.061-2.192-2.651 0-4.816.676-6.493 2.03-1.678 1.352-2.516 3.3-2.516 5.843 0 1.732.514 3.166 1.542 4.302 1.082 1.082 2.435 1.948 4.058 2.597 1.623.65 3.842 1.353 6.656 2.11 3.733 1.029 6.763 2.057 9.09 3.085 2.381 1.028 4.383 2.624 6.007 4.789 1.677 2.11 2.516 4.951 2.516 8.522 0 2.868-.785 5.574-2.354 8.117-1.515 2.543-3.761 4.6-6.737 6.169-2.922 1.515-6.385 2.272-10.389 2.272Zm49.472-46.021c3.409 0 6.439.73 9.091 2.191 2.705 1.461 4.815 3.626 6.331 6.494 1.569 2.868 2.353 6.33 2.353 10.389v26.38h-9.171v-25c0-4.004-1.001-7.062-3.004-9.172-2.002-2.164-4.734-3.247-8.197-3.247-3.463 0-6.223 1.083-8.279 3.247-2.002 2.11-3.003 5.168-3.003 9.172v25h-9.253V9h9.253v20.535c1.569-1.894 3.544-3.355 5.925-4.383 2.435-1.028 5.086-1.542 7.954-1.542Zm44.919 46.184c-4.221 0-8.036-.947-11.445-2.841-3.409-1.948-6.087-4.654-8.035-8.117-1.948-3.517-2.922-7.575-2.922-12.175 0-4.545 1.001-8.576 3.003-12.094 2.002-3.517 4.735-6.222 8.198-8.116 3.463-1.894 7.332-2.841 11.606-2.841 4.275 0 8.144.947 11.607 2.84 3.463 1.895 6.196 4.6 8.198 8.117 2.002 3.518 3.003 7.549 3.003 12.094 0 4.545-1.028 8.577-3.084 12.094-2.056 3.517-4.87 6.25-8.441 8.198-3.518 1.894-7.414 2.84-11.688 2.84Zm0-8.036c2.38 0 4.599-.568 6.655-1.704 2.111-1.137 3.815-2.841 5.114-5.114 1.298-2.273 1.948-5.032 1.948-8.279s-.623-5.98-1.867-8.198c-1.245-2.272-2.895-3.977-4.951-5.113a13.544 13.544 0 0 0-6.656-1.705c-2.381 0-4.599.569-6.656 1.705-2.002 1.136-3.598 2.84-4.788 5.113-1.191 2.219-1.786 4.951-1.786 8.198 0 4.816 1.217 8.55 3.652 11.201 2.49 2.597 5.601 3.896 9.335 3.896Zm39.097-29.869v24.756c0 1.677.379 2.895 1.136 3.652.812.704 2.165 1.055 4.059 1.055h5.681v7.711h-7.305c-4.166 0-7.359-.974-9.577-2.922-2.219-1.948-3.328-5.113-3.328-9.496V31.889h-5.276V24.34h5.276V13.22h9.334v11.12h10.876v7.549h-10.876Z"/></svg>