<svg xmlns="http://www.w3.org/2000/svg" width="307" height="60" fill="none"><path fill="#000" d="M7.553 6.608C11.728 2.622 17.397.295 23.143.006c1.966 0 3.939.012 5.905-.006-.1 2.108 0 4.222-.059 6.33-.277 4.713-2.02 9.319-4.954 13.016-3.815 4.972-9.65 8.308-15.844 9.17-2.705.438-5.45.16-8.173.237.047-2.321-.1-4.648.082-6.963.532-5.74 3.242-11.237 7.453-15.182ZM30.87 0c2.107.024 4.216-.012 6.33.012 5.261.372 10.452 2.391 14.414 5.893 4.37 3.75 7.364 9.112 8.132 14.84.337 2.657.124 5.344.254 8.014-1.843-.006-3.68-.012-5.522 0-4.529-.124-8.982-1.589-12.773-4.057-1.748-1.252-3.543-2.522-4.854-4.258a23.332 23.332 0 0 1-5.569-11.498c-.555-2.952-.33-5.964-.413-8.946ZM.022 30.447c1.872.107 3.75-.088 5.616.118 7.99.172 15.743 4.66 19.883 11.492 2.374 3.827 3.65 8.362 3.484 12.868-.006 1.476.018 2.946-.024 4.417-2.964-.089-5.958.153-8.893-.42-6.52-1.098-12.513-4.978-16.121-10.517C1.232 44.378-.132 39.46.01 34.6c0-1.388 0-2.77.012-4.152Zm50 .626c3.213-.715 6.526-.596 9.791-.596l.142.141c-.071 3.089.171 6.213-.449 9.266-1.305 6.85-5.84 12.968-11.94 16.328-3.797 2.114-8.156 3.153-12.496 3.106-1.388.006-2.781-.024-4.17.018 0-2.557-.105-5.126.184-7.671.673-6.16 4.004-11.894 8.793-15.767 2.964-2.339 6.448-4.034 10.145-4.825Zm34.175 16.831c0 1.04-.36 1.92-1.08 2.64-.679.679-1.539 1.019-2.578 1.019-1 0-1.84-.34-2.52-1.02-.68-.72-1.019-1.6-1.019-2.639V10.838c0-1.04.34-1.9 1.02-2.58.72-.719 1.599-1.079 2.639-1.079 1.04 0 1.879.36 2.519 1.08.68.68 1.02 1.54 1.02 2.579v37.066Zm28.889-28.429c1.039 0 1.899.36 2.579 1.08.679.679 1.019 1.539 1.019 2.578v15.235c0 4.238-1.179 7.597-3.538 10.076-2.36 2.48-5.758 3.719-10.197 3.719-4.438 0-7.837-1.24-10.196-3.719-2.319-2.48-3.479-5.838-3.479-10.076V23.133c0-1.04.34-1.899 1.02-2.579.68-.72 1.54-1.08 2.58-1.08 1.039 0 1.898.36 2.578 1.08.68.68 1.02 1.54 1.02 2.58v15.234c0 2.439.54 4.258 1.62 5.458 1.079 1.16 2.698 1.739 4.857 1.739 2.2 0 3.839-.58 4.919-1.74 1.079-1.199 1.619-3.018 1.619-5.457V23.133c0-1.04.34-1.899 1.02-2.579.679-.72 1.539-1.08 2.579-1.08Zm25.245-.6c3.199 0 5.558.78 7.078 2.339 1.519 1.52 2.519 3.499 2.998 5.938l-1.019-.54.48-.96c.479-.92 1.219-1.899 2.219-2.939.999-1.08 2.199-1.979 3.598-2.698 1.44-.76 3.039-1.14 4.799-1.14 2.879 0 5.058.62 6.537 1.86 1.52 1.239 2.559 2.898 3.119 4.977.56 2.04.84 4.319.84 6.838v15.354c0 1.04-.34 1.92-1.02 2.64-.68.679-1.539 1.019-2.579 1.019-1.039 0-1.899-.34-2.579-1.02-.68-.72-1.02-1.6-1.02-2.639V32.55c0-1.32-.159-2.5-.479-3.539-.32-1.08-.9-1.94-1.74-2.579-.839-.64-2.039-.96-3.598-.96-1.52 0-2.819.32-3.899.96a6.354 6.354 0 0 0-2.459 2.58c-.52 1.039-.78 2.218-.78 3.538v15.354c0 1.04-.34 1.92-1.019 2.64-.68.679-1.54 1.019-2.579 1.019-1.04 0-1.9-.34-2.579-1.02-.68-.72-1.02-1.6-1.02-2.639V32.55c0-1.32-.16-2.5-.48-3.539-.32-1.08-.9-1.94-1.739-2.579-.84-.64-2.04-.96-3.599-.96-1.519 0-2.819.32-3.899.96-1.079.64-1.899 1.5-2.459 2.58-.519 1.039-.779 2.218-.779 3.538v15.354c0 1.04-.34 1.92-1.02 2.64-.68.679-1.539 1.019-2.579 1.019-1.04 0-1.899-.34-2.579-1.02-.68-.72-1.02-1.6-1.02-2.639v-24.77c0-1.04.34-1.9 1.02-2.58.68-.72 1.539-1.08 2.579-1.08 1.04 0 1.899.36 2.579 1.08.68.68 1.02 1.54 1.02 2.58v2.578l-.9-.18c.36-.68.86-1.4 1.499-2.159.64-.8 1.42-1.54 2.34-2.219.919-.68 1.939-1.22 3.058-1.62 1.12-.44 2.34-.66 3.659-.66Zm42.217 29.029c0 1.04-.34 1.92-1.02 2.64-.679.679-1.539 1.019-2.579 1.019-1.039 0-1.899-.34-2.579-1.02-.679-.72-1.019-1.6-1.019-2.639v-24.77c0-1.04.34-1.9 1.019-2.58.68-.72 1.54-1.08 2.579-1.08 1.04 0 1.9.36 2.579 1.08.68.68 1.02 1.54 1.02 2.58v24.77Zm-3.659-32.328c-1.359 0-2.319-.22-2.879-.66-.559-.44-.839-1.22-.839-2.339v-1.14c0-1.159.3-1.939.899-2.339.64-.44 1.6-.66 2.879-.66 1.4 0 2.38.22 2.939.66.56.44.84 1.22.84 2.34v1.14c0 1.159-.3 1.959-.9 2.398-.599.4-1.579.6-2.939.6Zm25.211 3.299c2.959 0 5.198.62 6.717 1.86 1.56 1.239 2.619 2.898 3.179 4.977.6 2.04.9 4.319.9 6.838v15.354c0 1.04-.34 1.92-1.02 2.64-.68.679-1.539 1.019-2.579 1.019-1.039 0-1.899-.34-2.579-1.02-.68-.72-1.02-1.6-1.02-2.639V32.55c0-1.32-.179-2.5-.539-3.539-.32-1.08-.92-1.94-1.8-2.579-.879-.64-2.139-.96-3.778-.96-1.6 0-2.959.32-4.079.96a6.787 6.787 0 0 0-2.519 2.58c-.56 1.039-.84 2.218-.84 3.538v15.354c0 1.04-.339 1.92-1.019 2.64-.68.679-1.54 1.019-2.579 1.019-1.04 0-1.9-.34-2.579-1.02-.68-.72-1.02-1.6-1.02-2.639v-24.77c0-1.04.34-1.9 1.02-2.58.679-.72 1.539-1.08 2.579-1.08 1.039 0 1.899.36 2.579 1.08.68.68 1.019 1.54 1.019 2.58v2.578l-.899-.18c.36-.68.879-1.4 1.559-2.159.68-.8 1.48-1.54 2.399-2.219.92-.68 1.96-1.22 3.119-1.62 1.16-.44 2.419-.66 3.779-.66Zm46.405 16.674c0 3.279-.74 6.178-2.219 8.697-1.44 2.479-3.399 4.418-5.878 5.817-2.439 1.4-5.178 2.1-8.217 2.1-3.039 0-5.798-.7-8.277-2.1-2.439-1.4-4.398-3.338-5.878-5.818-1.439-2.518-2.159-5.417-2.159-8.696 0-3.28.72-6.158 2.159-8.637 1.48-2.52 3.439-4.478 5.878-5.878 2.479-1.44 5.238-2.16 8.277-2.16 3.039 0 5.778.72 8.217 2.16 2.479 1.4 4.438 3.359 5.878 5.878 1.479 2.479 2.219 5.358 2.219 8.637Zm-7.197 0c0-2.04-.42-3.799-1.26-5.278-.8-1.52-1.899-2.7-3.299-3.539-1.359-.84-2.879-1.26-4.558-1.26-1.679 0-3.219.42-4.618 1.26-1.36.84-2.46 2.02-3.299 3.539-.8 1.48-1.2 3.239-1.2 5.278 0 1.999.4 3.758 1.2 5.278.839 1.48 1.939 2.639 3.299 3.479 1.399.84 2.939 1.259 4.618 1.259 1.679 0 3.199-.42 4.558-1.26 1.4-.84 2.499-1.999 3.299-3.478.84-1.52 1.26-3.279 1.26-5.278Zm34.022-16.074c1.04 0 1.9.36 2.58 1.08.679.679 1.019 1.539 1.019 2.578v15.235c0 4.238-1.179 7.597-3.539 10.076-2.359 2.48-5.757 3.719-10.196 3.719-4.438 0-7.837-1.24-10.196-3.719-2.319-2.48-3.479-5.838-3.479-10.076V23.133c0-1.04.34-1.899 1.02-2.579.68-.72 1.539-1.08 2.579-1.08 1.04 0 1.899.36 2.579 1.08.68.68 1.02 1.54 1.02 2.58v15.234c0 2.439.539 4.258 1.619 5.458 1.08 1.16 2.699 1.739 4.858 1.739 2.199 0 3.839-.58 4.918-1.74 1.08-1.199 1.62-3.018 1.62-5.457V23.133c0-1.04.34-1.899 1.019-2.579.68-.72 1.54-1.08 2.579-1.08Zm6.533 27.11c-.4-.56-.58-1.28-.54-2.16.04-.88.56-1.639 1.56-2.279.639-.4 1.319-.56 2.039-.48.719.04 1.419.4 2.099 1.08 1.16 1.16 2.379 2.06 3.659 2.7 1.279.639 2.879.959 4.798.959.6-.04 1.259-.12 1.979-.24.72-.16 1.34-.48 1.859-.96.56-.52.84-1.3.84-2.339 0-.88-.3-1.58-.9-2.1-.599-.519-1.399-.959-2.399-1.319-.959-.36-2.039-.7-3.238-1.02-1.24-.36-2.52-.759-3.839-1.199-1.28-.44-2.459-1-3.539-1.68a8.508 8.508 0 0 1-2.639-2.818c-.679-1.16-1.019-2.62-1.019-4.379 0-1.999.559-3.698 1.679-5.098s2.559-2.479 4.318-3.238a14.35 14.35 0 0 1 5.638-1.14c1.24 0 2.539.16 3.899.48 1.359.28 2.659.76 3.898 1.44a9.29 9.29 0 0 1 3.119 2.578c.44.6.7 1.32.78 2.16.08.84-.3 1.599-1.14 2.279-.599.48-1.299.7-2.099.66-.799-.08-1.459-.36-1.979-.84-.68-.88-1.599-1.58-2.759-2.1-1.12-.52-2.419-.78-3.899-.78a9.19 9.19 0 0 0-1.979.24c-.68.12-1.279.42-1.799.9-.52.44-.78 1.16-.78 2.16 0 .92.3 1.659.9 2.219.6.52 1.399.96 2.399 1.32 1.039.32 2.139.639 3.299.959 1.199.32 2.419.7 3.658 1.14 1.24.44 2.379 1.019 3.419 1.739 1.04.72 1.879 1.66 2.519 2.819.64 1.12.96 2.559.96 4.318 0 2.04-.6 3.779-1.8 5.218-1.199 1.44-2.699 2.54-4.498 3.299a14.737 14.737 0 0 1-5.518 1.08c-2.359 0-4.718-.4-7.077-1.2-2.359-.84-4.319-2.3-5.878-4.378Z"/></svg>