<svg xmlns="http://www.w3.org/2000/svg" width="64" height="64" fill="none"><path fill="#F4F7FF" d="M51.014 49.258a17.496 17.496 0 0 1-2.623-3.822 18.263 18.263 0 0 0-10.852-9.142 18.197 18.197 0 0 0-6.292-.79 6.148 6.148 0 0 1 6.445 5.33 18.17 18.17 0 0 0 12.574 14.348 18.27 18.27 0 0 0 11.273-.174 18.067 18.067 0 0 1-10.525-5.75ZM24.74 35.71a18.325 18.325 0 0 0 2.46 5.852 6.2 6.2 0 0 1 1.393-8.26 18.212 18.212 0 0 0 .359-27.764 18.141 18.141 0 0 1 .236 12.042 17.752 17.752 0 0 1-2.05 4.192 18.233 18.233 0 0 0-2.49 13.969l.092-.031Zm9.786 6.272a6.148 6.148 0 0 1-7.84 2.92 18.198 18.198 0 0 0-18.752 3.69 18.202 18.202 0 0 0-5.472 9.87A18.16 18.16 0 0 1 12.77 52.23a18.674 18.674 0 0 1 4.621-.358 18.22 18.22 0 0 0 13.322-4.827 18.302 18.302 0 0 0 3.833-5.063h-.02Z"/></svg>